HIERARCHY
ROOT Hips
{
	OFFSET 0.091440 88.258293 2.461285
	CHANNELS 6 Xposition Yposition Zposition Zrotation Yrotation Xrotation 
	JOINT Spine
	{
		OFFSET -0.000000 8.814246 -2.080107
		CHANNELS 3 Zrotation Yrotation Xrotation
		JOINT Spine1
		{
			OFFSET 0.000000 8.844141 -0.000000
			CHANNELS 3 Zrotation Yrotation Xrotation
			JOINT Spine2
			{
				OFFSET 0.000000 11.682268 -0.000000
				CHANNELS 3 Zrotation Yrotation Xrotation
				JOINT Spine3
				{
					OFFSET 0.000000 11.746700 -0.000000
					CHANNELS 3 Zrotation Yrotation Xrotation
					JOINT Neck
					{
						OFFSET -0.000000 17.658264 0.000000
						CHANNELS 3 Zrotation Yrotation Xrotation
						JOINT Neck1
						{
							OFFSET 0.000000 5.101515 -0.000000
							CHANNELS 3 Zrotation Yrotation Xrotation
							JOINT Head
							{
								OFFSET 0.000000 5.101515 -0.000000
								CHANNELS 3 Zrotation Yrotation Xrotation
								JOINT HeadEnd
								{
									OFFSET -0.000000 11.655085 0.000000
									CHANNELS 3 Zrotation Yrotation Xrotation
									End Site
									{
										OFFSET 0.000000 0.000000 0.000000
									}
								}
							}
						}
					}
					JOINT RightShoulder
					{
						OFFSET -2.625389 11.175210 -0.000000
						CHANNELS 3 Zrotation Yrotation Xrotation
						JOINT RightArm
						{
							OFFSET 0.000000 10.434715 -0.000000
							CHANNELS 3 Zrotation Yrotation Xrotation
							JOINT RightForeArm
							{
								OFFSET 0.000000 29.628420 -0.000000
								CHANNELS 3 Zrotation Yrotation Xrotation
								JOINT RightHand
								{
									OFFSET -0.000000 22.857611 0.000000
									CHANNELS 3 Zrotation Yrotation Xrotation
									JOINT RightHandThumb1
									{
										OFFSET -2.867323 3.959563 2.944291
										CHANNELS 3 Zrotation Yrotation Xrotation
										JOINT RightHandThumb2
										{
											OFFSET -0.000000 3.350399 0.000000
											CHANNELS 3 Zrotation Yrotation Xrotation
											JOINT RightHandThumb3
											{
												OFFSET -0.000000 3.756509 0.000000
												CHANNELS 3 Zrotation Yrotation Xrotation
												JOINT RightHandThumb4
												{
													OFFSET 0.000000 3.147345 -0.000000
													CHANNELS 3 Zrotation Yrotation Xrotation
													End Site
													{
														OFFSET 0.000000 0.000000 0.000000
													}
												}
											}
										}
									}
									JOINT RightHandIndex1
									{
										OFFSET -0.086752 10.030893 2.345280
										CHANNELS 3 Zrotation Yrotation Xrotation
										JOINT RightHandIndex2
										{
											OFFSET 0.000000 4.061090 -0.000000
											CHANNELS 3 Zrotation Yrotation Xrotation
											JOINT RightHandIndex3
											{
												OFFSET -0.000000 3.248873 0.000000
												CHANNELS 3 Zrotation Yrotation Xrotation
												JOINT RightHandIndex4
												{
													OFFSET 0.000000 2.639709 -0.000000
													CHANNELS 3 Zrotation Yrotation Xrotation
													End Site
													{
														OFFSET 0.000000 0.000000 0.000000
													}
												}
											}
										}
									}
									JOINT RightHandMiddle1
									{
										OFFSET 0.104102 9.502952 0.006768
										CHANNELS 3 Zrotation Yrotation Xrotation
										JOINT RightHandMiddle2
										{
											OFFSET -0.000000 4.568727 0.000000
											CHANNELS 3 Zrotation Yrotation Xrotation
											JOINT RightHandMiddle3
											{
												OFFSET -0.000000 3.654981 0.000000
												CHANNELS 3 Zrotation Yrotation Xrotation
												JOINT RightHandMiddle4
												{
													OFFSET -0.000000 2.741236 0.000000
													CHANNELS 3 Zrotation Yrotation Xrotation
													End Site
													{
														OFFSET 0.000000 0.000000 0.000000
													}
												}
											}
										}
									}
									JOINT RightHandRing1
									{
										OFFSET 0.086752 8.921708 -2.267442
										CHANNELS 3 Zrotation Yrotation Xrotation
										JOINT RightHandRing2
										{
											OFFSET -0.000000 4.061090 0.000000
											CHANNELS 3 Zrotation Yrotation Xrotation
											JOINT RightHandRing3
											{
												OFFSET -0.000000 3.654981 0.000000
												CHANNELS 3 Zrotation Yrotation Xrotation
												JOINT RightHandRing4
												{
													OFFSET 0.000000 2.741236 0.000000
													CHANNELS 3 Zrotation Yrotation Xrotation
													End Site
													{
														OFFSET 0.000000 0.000000 0.000000
													}
												}
											}
										}
									}
									JOINT RightHandPinky1
									{
										OFFSET -0.173504 7.976997 -4.467199
										CHANNELS 3 Zrotation Yrotation Xrotation
										JOINT RightHandPinky2
										{
											OFFSET -0.000000 3.350399 -0.000000
											CHANNELS 3 Zrotation Yrotation Xrotation
											JOINT RightHandPinky3
											{
												OFFSET -0.000000 2.842763 -0.000000
												CHANNELS 3 Zrotation Yrotation Xrotation
												JOINT RightHandPinky4
												{
													OFFSET -0.000000 2.639709 -0.000000
													CHANNELS 3 Zrotation Yrotation Xrotation
													End Site
													{
														OFFSET 0.000000 0.000000 0.000000
													}
												}
											}
										}
									}
									JOINT RightForeArmEnd
									{
										OFFSET 0.000000 0.000000 0.000000
										CHANNELS 3 Zrotation Yrotation Xrotation
										End Site
										{
											OFFSET 0.000000 0.000000 0.000000
										}
									}
								}
								JOINT RightArmEnd
								{
									OFFSET 0.000000 0.000000 0.000000
									CHANNELS 3 Zrotation Yrotation Xrotation
									End Site
									{
										OFFSET 0.000000 0.000000 0.000000
									}
								}
							}
						}
					}
					JOINT LeftShoulder
					{
						OFFSET 2.625389 11.175210 0.000000
						CHANNELS 3 Zrotation Yrotation Xrotation
						JOINT LeftArm
						{
							OFFSET -0.000000 10.813635 -0.000000
							CHANNELS 3 Zrotation Yrotation Xrotation
							JOINT LeftForeArm
							{
								OFFSET -0.000000 28.724781 -0.000000
								CHANNELS 3 Zrotation Yrotation Xrotation
								JOINT LeftHand
								{
									OFFSET 0.644384 25.716167 -0.328871
									CHANNELS 3 Zrotation Yrotation Xrotation
									JOINT LeftHandThumb1
									{
										OFFSET 2.867323 3.959563 2.944291
										CHANNELS 3 Zrotation Yrotation Xrotation
										JOINT LeftHandThumb2
										{
											OFFSET -0.000000 3.350399 0.000000
											CHANNELS 3 Zrotation Yrotation Xrotation
											JOINT LeftHandThumb3
											{
												OFFSET -0.000000 3.756509 -0.000000
												CHANNELS 3 Zrotation Yrotation Xrotation
												JOINT LeftHandThumb4
												{
													OFFSET 0.000000 3.100000 0.000000
													CHANNELS 3 Zrotation Yrotation Xrotation
													End Site
													{
														OFFSET 0.000000 0.000000 0.000000
													}
												}
											}
										}
									}
									JOINT LeftHandIndex1
									{
										OFFSET 0.086752 10.030893 2.345280
										CHANNELS 3 Zrotation Yrotation Xrotation
										JOINT LeftHandIndex2
										{
											OFFSET -0.000000 4.061090 0.000000
											CHANNELS 3 Zrotation Yrotation Xrotation
											JOINT LeftHandIndex3
											{
												OFFSET -0.000000 3.248873 -0.000000
												CHANNELS 3 Zrotation Yrotation Xrotation
												JOINT LeftHandIndex4
												{
													OFFSET -0.000000 2.639709 -0.000000
													CHANNELS 3 Zrotation Yrotation Xrotation
													End Site
													{
														OFFSET 0.000000 0.000000 0.000000
													}
												}
											}
										}
									}
									JOINT LeftHandMiddle1
									{
										OFFSET -0.104102 9.502952 0.006768
										CHANNELS 3 Zrotation Yrotation Xrotation
										JOINT LeftHandMiddle2
										{
											OFFSET -0.000000 4.568727 -0.000000
											CHANNELS 3 Zrotation Yrotation Xrotation
											JOINT LeftHandMiddle3
											{
												OFFSET 0.000000 3.654981 -0.000000
												CHANNELS 3 Zrotation Yrotation Xrotation
												JOINT LeftHandMiddle4
												{
													OFFSET -0.000000 2.741236 -0.000000
													CHANNELS 3 Zrotation Yrotation Xrotation
													End Site
													{
														OFFSET 0.000000 0.000000 0.000000
													}
												}
											}
										}
									}
									JOINT LeftHandRing1
									{
										OFFSET -0.086752 8.921708 -2.267442
										CHANNELS 3 Zrotation Yrotation Xrotation
										JOINT LeftHandRing2
										{
											OFFSET 0.000000 4.061090 0.000000
											CHANNELS 3 Zrotation Yrotation Xrotation
											JOINT LeftHandRing3
											{
												OFFSET 0.000000 3.654981 -0.000000
												CHANNELS 3 Zrotation Yrotation Xrotation
												JOINT LeftHandRing4
												{
													OFFSET 0.000000 2.741236 -0.000000
													CHANNELS 3 Zrotation Yrotation Xrotation
													End Site
													{
														OFFSET 0.000000 0.000000 0.000000
													}
												}
											}
										}
									}
									JOINT LeftHandPinky1
									{
										OFFSET 0.173504 7.976997 -4.467199
										CHANNELS 3 Zrotation Yrotation Xrotation
										JOINT LeftHandPinky2
										{
											OFFSET -0.000000 3.350399 0.000000
											CHANNELS 3 Zrotation Yrotation Xrotation
											JOINT LeftHandPinky3
											{
												OFFSET 0.000000 2.842763 0.000000
												CHANNELS 3 Zrotation Yrotation Xrotation
												JOINT LeftHandPinky4
												{
													OFFSET 0.000000 2.639709 0.000000
													CHANNELS 3 Zrotation Yrotation Xrotation
													End Site
													{
														OFFSET 0.000000 0.000000 0.000000
													}
												}
											}
										}
									}
									JOINT LeftForeArmEnd
									{
										OFFSET 0.000000 0.000000 0.000000
										CHANNELS 3 Zrotation Yrotation Xrotation
										End Site
										{
											OFFSET 0.000000 0.000000 0.000000
										}
									}
								}
								JOINT LeftArmEnd
								{
									OFFSET 0.000000 0.000000 0.000000
									CHANNELS 3 Zrotation Yrotation Xrotation
									End Site
									{
										OFFSET 0.000000 0.000000 0.000000
									}
								}
							}
						}
					}
				}
			}
		}
	}
	JOINT RightUpLeg
	{
		OFFSET -11.289943 0.000000 0.000000
		CHANNELS 3 Zrotation Yrotation Xrotation
		JOINT RightLeg
		{
			OFFSET 0.000000 -38.200325 -0.000000
			CHANNELS 3 Zrotation Yrotation Xrotation
			JOINT RightFoot
			{
				OFFSET 0.000000 -39.900856 0.000000
				CHANNELS 3 Zrotation Yrotation Xrotation
				JOINT RightToeBase
				{
					OFFSET -0.000000 -0.000000 15.261641
					CHANNELS 3 Zrotation Yrotation Xrotation
					JOINT RightToeBaseEnd
					{
						OFFSET 0.000000 0.000000 7.370709
						CHANNELS 3 Zrotation Yrotation Xrotation
						End Site
						{
							OFFSET 0.000000 0.000000 0.000000
						}
					}
				}
				JOINT RightLegEnd
				{
					OFFSET 0.000000 0.000000 0.000000
					CHANNELS 3 Zrotation Yrotation Xrotation
					End Site
					{
						OFFSET 0.000000 0.000000 0.000000
					}
				}
			}
			JOINT RightUpLegEnd
			{
				OFFSET 0.000000 0.000000 0.000000
				CHANNELS 3 Zrotation Yrotation Xrotation
				End Site
				{
					OFFSET 0.000000 0.000000 0.000000
				}
			}
		}
	}
	JOINT LeftUpLeg
	{
		OFFSET 11.315661 0.000000 -0.000000
		CHANNELS 3 Zrotation Yrotation Xrotation
		JOINT LeftLeg
		{
			OFFSET -0.000000 -38.200325 0.000000
			CHANNELS 3 Zrotation Yrotation Xrotation
			JOINT LeftFoot
			{
				OFFSET -0.000000 -39.900856 0.000000
				CHANNELS 3 Zrotation Yrotation Xrotation
				JOINT LeftToeBase
				{
					OFFSET 0.000000 -0.000000 15.261641
					CHANNELS 3 Zrotation Yrotation Xrotation
					JOINT LeftToeBaseEnd
					{
						OFFSET 0.000000 -0.000000 7.539996
						CHANNELS 3 Zrotation Yrotation Xrotation
						End Site
						{
							OFFSET 0.000000 0.000000 0.000000
						}
					}
				}
				JOINT LeftLegEnd
				{
					OFFSET 0.000000 0.000000 0.000000
					CHANNELS 3 Zrotation Yrotation Xrotation
					End Site
					{
						OFFSET 0.000000 0.000000 0.000000
					}
				}
			}
			JOINT LeftUpLegEnd
			{
				OFFSET 0.000000 0.000000 0.000000
				CHANNELS 3 Zrotation Yrotation Xrotation
				End Site
				{
					OFFSET 0.000000 0.000000 0.000000
				}
			}
		}
	}
}
MOTION
Frames: 5
Frame Time: 0.016667
22.192350 87.213814 49.830177 -2.346418 -8.847733 -12.179388 0.665071 0.022038 7.773260 -0.981983 -0.036465 2.604656 1.462976 -2.241970 10.288507 -0.009020 -0.180359 5.351262 4.536289 3.120368 0.606131 1.191241 5.246482 -7.037529 -0.934097 -0.188739 -16.774473 0.000000 0.000000 0.000000 87.972542 0.618848 13.083309 62.009903 -34.606148 11.620580 -0.037927 16.393188 36.778748 3.900276 20.695118 -1.605874 13.925267 -2.037582 38.503036 0.000002 0.000008 -34.150082 0.000017 0.000031 -23.650688 -0.000015 -0.000007 -0.000026 31.449253 -0.013220 -6.352055 21.290787 -0.080422 0.317557 21.542553 -0.023832 0.210834 0.000006 0.000031 -0.000008 31.806793 0.008333 -6.365699 21.600227 -0.013261 0.040176 21.859482 0.014790 0.044698 -0.000003 0.000043 0.000007 40.297878 -0.068686 -3.434705 27.205101 0.011246 0.191788 27.149473 -0.045541 0.153666 -0.000020 0.000838 0.000014 43.840607 -0.139711 -1.322045 29.785114 -0.164219 1.119572 29.526834 -0.242059 0.940913 0.001174 -0.000002 -0.000011 0.000000 0.000000 0.000000 0.000000 0.000000 0.000000 -84.869049 -0.315509 10.520743 -60.484848 34.319088 8.644906 0.287972 -6.902801 45.101368 6.656039 -12.573442 -18.073036 -18.878271 2.044322 36.473305 -0.000013 0.000019 -46.122982 0.000048 -0.000014 -32.014572 0.001461 0.000004 -0.000892 -54.343430 0.109895 -15.517449 -37.405754 0.093814 0.234709 -37.799469 0.129874 0.286300 0.000024 0.001484 0.000026 -54.791634 0.081896 -12.351524 -37.871803 0.026426 0.107478 -37.908688 0.036463 0.095641 0.001848 -0.000050 -0.000077 -63.625381 -0.040057 -5.742762 -44.160652 -0.054242 -0.309409 -44.004749 -0.075046 -0.213517 -0.003401 0.000002 0.000001 -66.936775 -0.080613 0.451928 -46.504002 -0.194580 -1.088798 -46.321445 -0.233777 -0.853822 -0.001126 0.000004 -0.000040 0.000000 0.000000 0.000000 0.000000 0.000000 0.000000 -5.360636 -4.968134 2.975858 -0.226488 -0.746320 22.432381 2.465930 -9.456135 18.271023 -0.952613 0.824680 -20.673386 0.000000 0.000000 0.000000 0.000000 0.000000 0.000000 0.000000 0.000000 0.000000 0.215805 3.019202 5.918941 0.019215 -0.090205 22.252604 4.155090 11.220147 9.703070 0.351516 0.039268 -20.307541 0.000000 0.000000 0.000000 0.000000 0.000000 0.000000 0.000000 0.000000 0.000000 
22.206686 87.245132 49.760769 -2.274698 -8.901025 -12.201193 0.675911 0.015132 7.822431 -0.952048 -0.048981 2.692782 1.403449 -2.240165 10.235662 -0.020193 -0.178152 5.329792 4.389238 3.272748 0.324743 1.161368 5.335624 -7.115705 -0.960728 -0.190977 -16.725033 0.000000 0.000000 0.000000 87.813889 0.607609 13.137281 61.201817 -35.169865 12.144921 -0.086416 16.170404 37.868702 3.140773 19.570650 -1.231983 14.020031 -2.043879 38.461498 0.000003 0.000007 -34.371365 0.000016 0.000031 -23.819441 -0.000015 -0.000007 -0.000025 31.668825 -0.022448 -6.051789 21.397715 -0.068102 0.300783 21.639956 -0.013309 0.196470 0.000006 0.000030 -0.000008 32.045372 0.005433 -6.098138 21.714977 -0.008296 0.032622 21.976860 0.018367 0.038637 -0.000004 0.000032 0.000007 40.599945 -0.065534 -3.165792 27.375814 0.000878 0.202031 27.320562 -0.051994 0.160929 -0.000019 0.000750 0.000013 44.089272 -0.132291 -1.090666 29.965473 -0.189671 1.143583 29.692066 -0.260685 0.957854 0.001185 -0.000002 -0.000010 0.000000 0.000000 0.000000 0.000000 0.000000 0.000000 -84.747566 -0.353862 10.612322 -59.647369 34.414474 9.136756 0.341118 -7.021843 45.410618 6.758637 -12.252626 -17.665779 -18.854710 2.055461 36.474457 -0.000014 0.000019 -46.027748 0.000031 -0.000015 -31.960861 0.001628 0.000004 -0.000873 -53.983639 0.103185 -15.247371 -37.188595 0.093508 0.230592 -37.586617 0.130454 0.278966 0.000024 0.001412 0.000026 -54.504269 0.078823 -12.148099 -37.676632 0.026986 0.105898 -37.727043 0.036811 0.093260 0.001855 -0.000051 -0.000060 -63.437706 -0.037985 -5.583177 -44.022633 -0.057372 -0.309578 -43.859180 -0.076735 -0.212792 -0.003488 0.000003 0.000001 -66.848053 -0.077758 0.549716 -46.412560 -0.204503 -1.096478 -46.231625 -0.239680 -0.856867 -0.001127 0.000004 -0.000041 0.000000 0.000000 0.000000 0.000000 0.000000 0.000000 -5.453515 -4.977104 2.783568 -0.227692 -0.749217 22.524721 2.494479 -9.385149 18.223505 -0.970203 0.834963 -20.612204 0.000000 0.000000 0.000000 0.000000 0.000000 0.000000 0.000000 0.000000 0.000000 0.229112 3.238372 5.909104 0.017250 -0.097144 22.137655 4.099363 11.348797 9.813172 0.361336 0.032356 -20.288307 0.000000 0.000000 0.000000 0.000000 0.000000 0.000000 0.000000 0.000000 0.000000 
22.211817 87.268784 49.698452 -2.206900 -8.949311 -12.235871 0.699882 0.009390 7.874455 -0.912093 -0.061892 2.778731 1.348272 -2.233042 10.205854 -0.035680 -0.173244 5.315776 4.242082 3.410883 0.040407 1.128565 5.398317 -7.199253 -0.989568 -0.194109 -16.696966 0.000000 0.000000 0.000000 87.675323 0.583400 13.145840 60.274311 -35.698250 12.629621 -0.141944 15.948327 39.308285 2.386766 18.300272 -0.692013 14.160850 -2.053020 38.397774 0.000003 0.000006 -34.715015 0.000016 0.000032 -24.073576 -0.000015 -0.000007 -0.000025 32.099342 -0.032416 -5.721099 21.683683 -0.054714 0.271915 21.907122 -0.001358 0.171092 0.000006 0.000029 -0.000008 32.490936 0.002125 -5.788644 22.005724 -0.002606 0.020746 22.270098 0.022373 0.028864 -0.000004 0.000022 0.000007 41.116913 -0.061984 -2.849598 27.719988 -0.010496 0.219068 27.661434 -0.059397 0.173105 -0.000019 0.000679 0.000012 44.517277 -0.125325 -0.811272 30.294622 -0.217862 1.186952 30.005276 -0.282071 0.991733 0.001210 -0.000001 -0.000009 0.000000 0.000000 0.000000 0.000000 0.000000 0.000000 -84.625740 -0.386488 10.672586 -58.817078 34.398872 9.496373 0.397448 -7.175459 45.792664 6.993120 -11.866955 -17.240835 -18.819338 2.067596 36.482834 -0.000015 0.000018 -45.886963 0.000015 -0.000016 -31.876389 0.001764 0.000004 -0.000859 -53.501686 0.096013 -14.924058 -36.904049 0.088459 0.209375 -37.303356 0.126472 0.257489 0.000025 0.001320 0.000027 -54.091568 0.075463 -11.910216 -37.408558 0.025667 0.098570 -37.476025 0.035939 0.086619 0.001883 -0.000052 -0.000042 -63.134090 -0.035723 -5.386015 -43.815933 -0.058052 -0.302811 -43.646851 -0.076782 -0.206919 -0.003593 0.000004 0.000001 -66.670258 -0.075460 0.665175 -46.266045 -0.208307 -1.084557 -46.085850 -0.241070 -0.845802 -0.001127 0.000003 -0.000041 0.000000 0.000000 0.000000 0.000000 0.000000 0.000000 -5.543810 -4.970376 2.606150 -0.229100 -0.751854 22.654903 2.516972 -9.302701 18.141434 -0.982488 0.843757 -20.556244 0.000000 0.000000 0.000000 0.000000 0.000000 0.000000 0.000000 0.000000 0.000000 0.257703 3.421888 5.918714 0.016197 -0.100836 22.013721 4.021496 11.436073 9.907927 0.372750 0.017802 -20.265650 0.000000 0.000000 0.000000 0.000000 0.000000 0.000000 0.000000 0.000000 0.000000 
22.205893 87.282654 49.643200 -2.152780 -8.988362 -12.273161 0.738694 0.003730 7.928634 -0.859213 -0.075897 2.858906 1.301488 -2.217224 10.190298 -0.052805 -0.163044 5.306972 4.121377 3.521535 -0.231805 1.095514 5.430897 -7.283939 -1.019802 -0.200180 -16.678577 0.000000 0.000000 0.000000 87.537811 0.548149 13.103137 59.260036 -36.142582 13.009673 -0.195873 15.743489 41.038834 1.692773 17.135984 -0.028059 14.299248 -2.061537 38.333679 0.000004 0.000004 -35.065132 0.000015 0.000032 -24.332159 -0.000015 -0.000006 -0.000025 32.563770 -0.041731 -5.347270 22.010889 -0.041270 0.238915 22.208147 0.011139 0.141662 0.000006 0.000028 -0.000008 32.983967 -0.001206 -5.439278 22.342377 0.003544 0.007264 22.610346 0.026642 0.017471 -0.000005 0.000012 0.000006 41.719849 -0.058149 -2.506292 28.125996 -0.022663 0.240651 28.060265 -0.067578 0.188602 -0.000018 0.000629 0.000011 45.040119 -0.118663 -0.519317 30.687057 -0.249170 1.246161 30.380621 -0.306301 1.040250 0.001244 -0.000001 -0.000008 0.000000 0.000000 0.000000 0.000000 0.000000 0.000000 -84.494728 -0.406481 10.695162 -58.039371 34.262032 9.665046 0.446992 -7.335011 46.210320 7.337885 -11.462522 -16.855888 -18.742369 2.079679 36.511604 -0.000016 0.000018 -45.634686 0.000003 -0.000018 -31.712528 0.001865 0.000004 -0.000838 -52.803967 0.088948 -14.567522 -36.492271 0.078825 0.172664 -36.892567 0.117982 0.223861 0.000027 0.001195 0.000028 -53.468761 0.071986 -11.660775 -37.011314 0.022488 0.085907 -37.098003 0.033896 0.076388 0.001915 -0.000053 -0.000024 -62.644852 -0.033576 -5.176856 -43.488007 -0.056281 -0.289464 -43.315643 -0.075143 -0.196371 -0.003694 0.000004 0.000000 -66.340439 -0.074356 0.771470 -46.021484 -0.205250 -1.053175 -45.840107 -0.237700 -0.821512 -0.001129 0.000003 -0.000042 0.000000 0.000000 0.000000 0.000000 0.000000 0.000000 -5.615419 -4.937999 2.438837 -0.230410 -0.755857 22.833014 2.530067 -9.217672 18.032808 -0.988935 0.850818 -20.513729 0.000000 0.000000 0.000000 0.000000 0.000000 0.000000 0.000000 0.000000 0.000000 0.308150 3.568658 5.926972 0.015992 -0.101664 21.902458 3.924121 11.489573 9.990339 0.384942 -0.002893 -20.254805 0.000000 0.000000 0.000000 0.000000 0.000000 0.000000 0.000000 0.000000 0.000000 
22.187773 87.286972 49.591400 -2.119986 -9.015045 -12.295138 0.790746 -0.004366 7.977555 -0.794842 -0.091114 2.935686 1.264692 -2.191216 10.168031 -0.074678 -0.146730 5.303004 4.063294 3.582207 -0.466832 1.062072 5.423148 -7.360364 -1.044293 -0.209189 -16.664951 0.000000 0.000000 0.000000 87.368568 0.511297 13.012439 58.212646 -36.462925 13.231915 -0.237773 15.563403 42.958424 1.067226 16.258095 0.659107 14.413215 -2.067053 38.280937 0.000004 0.000002 -35.363297 0.000015 0.000032 -24.554642 -0.000014 -0.000006 -0.000025 32.956276 -0.049500 -4.950700 22.302176 -0.026589 0.205329 22.469862 0.025313 0.111097 0.000006 0.000028 -0.000008 33.427013 -0.004259 -5.073340 22.650898 0.010588 -0.007103 22.923330 0.031700 0.004907 -0.000006 0.000003 0.000006 42.320179 -0.054336 -2.159070 28.522617 -0.036660 0.265402 28.447983 -0.077218 0.206611 -0.000017 0.000591 0.000011 45.597748 -0.112418 -0.235812 31.086197 -0.287194 1.317874 30.761757 -0.336109 1.100358 0.001280 -0.000001 -0.000008 0.000000 0.000000 0.000000 0.000000 0.000000 0.000000 -84.348610 -0.413874 10.676207 -57.343903 33.983536 9.641510 0.472958 -7.480281 46.598949 7.752813 -11.140270 -16.547541 -18.596395 2.091801 36.570889 -0.000016 0.000018 -45.208645 -0.000008 -0.000019 -31.423613 0.001939 0.000004 -0.000786 -51.781433 0.082513 -14.207143 -35.871517 0.066508 0.127035 -36.275433 0.106695 0.184290 0.000028 0.001037 0.000029 -52.533413 0.068552 -11.428531 -36.407326 0.018115 0.070283 -36.513912 0.031222 0.064831 0.001938 -0.000053 -0.000009 -61.869770 -0.031896 -4.992815 -42.960220 -0.053064 -0.272155 -42.785900 -0.072546 -0.183340 -0.003752 0.000005 0.000000 -65.765327 -0.075427 0.825498 -45.605885 -0.197518 -1.008672 -45.421055 -0.231349 -0.789068 -0.001128 0.000003 -0.000042 0.000000 0.000000 0.000000 0.000000 0.000000 0.000000 -5.656626 -4.869118 2.267208 -0.231254 -0.761213 23.054001 2.529423 -9.135779 17.916986 -0.990129 0.856164 -20.491280 0.000000 0.000000 0.000000 0.000000 0.000000 0.000000 0.000000 0.000000 0.000000 0.385019 3.681648 5.911181 0.016625 -0.100789 21.829525 3.809249 11.514359 10.058193 0.395230 -0.027209 -20.268211 0.000000 0.000000 0.000000 0.000000 0.000000 0.000000 0.000000 0.000000 0.000000 
